<mxfile host="app.diagrams.net" modified="2024-06-17T09:14:17.803Z" agent="Mozilla/5.0 (Macintosh; Intel Mac OS X 10_15_7) AppleWebKit/537.36 (KHTML, like Gecko) Chrome/125.0.0.0 Safari/537.36" version="24.5.4" etag="tKxF4us7kQYaD6oSCvbr" type="github">
  <diagram name="Page-1" id="KnThxhG99cjD2mGlex-I">
    <mxGraphModel>
      <root>
        <mxCell id="0" />
        <mxCell id="1" parent="0" />
      </root>
    </mxGraphModel>
  </diagram>
</mxfile>
